<?xml version="1.0" encoding="UTF-8"?><svg xmlns="http://www.w3.org/2000/svg" viewBox="0 0 1920 1080"><defs><style>.cls-1{stroke-dasharray:0 0 12.12 12.12;}.cls-1,.cls-2,.cls-3,.cls-4{fill:none;stroke-linecap:round;}.cls-1,.cls-4{stroke:#fff;stroke-miterlimit:10;stroke-width:2px;}.cls-2{stroke:#000;}.cls-2,.cls-3{stroke-linejoin:round;stroke-width:4px;}.cls-5{fill:#001319;}.cls-6{fill:#ffe600;}.cls-3{stroke:#ffe600;}</style></defs><g id="Layer_1"><rect class="cls-5" width="1920" height="1080"/></g><g id="Layer_2"><line class="cls-4" x1="935.82" y1="58.18" x2="935.82" y2="64.18"/><line class="cls-1" x1="935.82" y1="76.3" x2="935.82" y2="1015.62"/><line class="cls-4" x1="935.82" y1="1021.68" x2="935.82" y2="1027.68"/><line class="cls-4" x1="1420.57" y1="542.93" x2="1414.57" y2="542.93"/><line class="cls-1" x1="1402.45" y1="542.93" x2="463.13" y2="542.93"/><line class="cls-4" x1="457.07" y1="542.93" x2="451.07" y2="542.93"/><path class="cls-2" d="m676.15,827.64c58.98-344.69,114.64-423.68,156.23-426.56,87.59-6.06,139.29,323.58,223.95,315.45,65.42-6.28,110.4-210.4,139.17-394.71"/><path d="m684,828.98c-.74,4.34-4.86,7.25-9.2,6.51-4.34-.74-7.25-4.86-6.51-9.2.74-4.34,4.86-7.25,9.2-6.51,4.34.74,7.25,4.86,6.51,9.2Z"/><path d="m1203.37,323.06c.68-4.35-2.3-8.43-6.65-9.1-4.35-.68-8.43,2.3-9.1,6.65-.68,4.35,2.3,8.43,6.65,9.1,4.35.68,8.43-2.3,9.1-6.65Z"/><path class="cls-3" d="m662.27,802.43c58.98-344.69,114.64-423.68,156.23-426.56,87.59-6.06,139.29,323.58,223.95,315.45,65.42-6.28,110.4-210.4,139.17-394.71"/><path class="cls-6" d="m670.12,803.77c-.74,4.34-4.86,7.25-9.2,6.51-4.34-.74-7.25-4.86-6.51-9.2.74-4.34,4.86-7.25,9.2-6.51,4.34.74,7.25,4.86,6.51,9.2Z"/><path class="cls-6" d="m1189.49,297.84c.68-4.35-2.3-8.43-6.65-9.1-4.35-.68-8.43,2.3-9.1,6.65-.68,4.35,2.3,8.43,6.65,9.1,4.35.68,8.43-2.3,9.1-6.65Z"/></g></svg>