<?xml version="1.0" encoding="UTF-8"?><svg id="Layer_1" xmlns="http://www.w3.org/2000/svg" viewBox="0 0 1272.17 1272.17"><defs><style>.cls-1{fill:#ffdc00;}.cls-2{stroke:#333;}.cls-2,.cls-3,.cls-4,.cls-5{fill:none;stroke-miterlimit:10;}.cls-2,.cls-4{stroke-width:8px;}.cls-6{fill:#333;}.cls-3,.cls-5{stroke:#000;stroke-width:3px;}.cls-4{stroke:#ffdc00;}.cls-5{stroke-dasharray:0 0 12 12;}</style></defs><line class="cls-3" x1="636.09" y1="0" x2="636.09" y2="6"/><line class="cls-5" x1="636.09" y1="18" x2="636.09" y2="1260.17"/><line class="cls-3" x1="636.09" y1="1266.17" x2="636.09" y2="1272.17"/><line class="cls-3" x1="0" y1="636.09" x2="6" y2="636.09"/><line class="cls-5" x1="18" y1="636.09" x2="1260.17" y2="636.09"/><line class="cls-3" x1="1266.17" y1="636.09" x2="1272.17" y2="636.09"/><path class="cls-2" d="m103.76,1190.66c90.34-350.51,212.59-690.31,357.68-690.28,149.54.03,220.66,361.06,360.52,356.37,86.96-2.91,196.91-147.09,313.67-711.91"/><path class="cls-6" d="m115.6,1193.14c-1.68,6.43-8.26,10.27-14.69,8.59-6.43-1.68-10.27-8.26-8.59-14.69,1.68-6.43,8.26-10.27,14.69-8.59,6.43,1.68,10.27,8.26,8.59,14.69Z"/><path class="cls-6" d="m1147.17,147.92c1.39-6.5-2.75-12.89-9.25-14.28-6.5-1.39-12.89,2.75-14.28,9.25-1.39,6.5,2.75,12.89,9.25,14.28,6.5,1.39,12.89-2.75,14.28-9.25Z"/><path class="cls-4" d="m85.11,1163.72c90.34-350.51,212.59-690.31,357.68-690.28,149.54.03,220.66,361.06,360.52,356.37,86.96-2.91,196.91-147.09,313.67-711.91"/><path class="cls-1" d="m96.95,1166.2c-1.68,6.43-8.26,10.27-14.69,8.59s-10.27-8.26-8.59-14.69c1.68-6.43,8.26-10.27,14.69-8.59,6.43,1.68,10.27,8.26,8.59,14.69Z"/><path class="cls-1" d="m1128.52,120.99c1.39-6.5-2.75-12.89-9.25-14.28s-12.89,2.75-14.28,9.25c-1.39,6.5,2.75,12.89,9.25,14.28,6.5,1.39,12.89-2.75,14.28-9.25Z"/></svg>